<?xml version="1.0" encoding="UTF-8"?>
<svg width="94px" height="34px" viewBox="0 0 94 34" version="1.1" xmlns="http://www.w3.org/2000/svg" xmlns:xlink="http://www.w3.org/1999/xlink">
    <title>SKIP Logo</title>
    <g id="Templates" stroke="none" stroke-width="1" fill="none" fill-rule="evenodd">
        <g id="Artboard" transform="translate(-495.000000, -301.000000)">
            <g id="SKIP-Logo" transform="translate(495.000000, 301.000000)">
                <path d="M12.225574,24.1018064 C13.7618564,24.1018064 14.841297,23.7263959 15.4638957,22.9755747 C16.0864943,22.2247536 16.3977937,21.2372606 16.3977937,20.0130957 L16.3977937,20.0130957 L16.3977937,19.131697 C16.3977937,18.0381097 16.2037369,17.2097581 15.8156235,16.6466423 C15.42751,16.0835264 14.8695969,15.6958742 14.1418842,15.4836856 C13.4141714,15.271497 12.5328305,15.1654027 11.4978612,15.1654027 L11.4978612,15.1654027 L6.16130117,15.1654027 C5.65998795,15.1654027 5.29613158,15.0919528 5.06973207,14.9450531 C4.84333255,14.7981533 4.73013279,14.5369981 4.73013279,14.1615875 L4.73013279,14.1615875 L4.73013279,13.9902044 C4.74630418,13.6147939 4.85950394,13.3577192 5.06973207,13.2189806 C5.27996019,13.0802419 5.63573086,13.0108725 6.13704408,13.0108725 L6.13704408,13.0108725 L7.88355465,13.0353558 C9.80795055,13.0353558 11.39679,13.0639197 12.6500731,13.1210474 C13.9033561,13.1781751 14.7563972,13.2312222 15.2091962,13.2801888 L15.2091962,13.2801888 L15.9369089,10.2442599 C15.9369089,10.1136823 15.6094382,9.9912658 14.9544967,9.87701041 C14.2995553,9.76275502 13.478857,9.70562732 12.492402,9.70562732 L12.492402,9.70562732 L4.43904769,9.70562732 C3.3070501,9.70562732 2.41762343,9.88925206 1.77076766,10.2565015 C1.12391189,10.623751 0.667070009,11.1093364 0.400242005,11.7132577 C0.133414002,12.3171791 0,12.9782281 0,13.6964049 L0,13.6964049 L0,14.5778036 C0,15.9651905 0.371942065,16.9649251 1.1158262,17.5770076 C1.85971033,18.18909 3.0483078,18.4951312 4.68161861,18.4951312 L4.68161861,18.4951312 L10.2364925,18.4951312 C10.8024913,18.4951312 11.1825191,18.5685811 11.3765758,18.7154809 C11.5706325,18.8623807 11.6676609,19.131697 11.6676609,19.5234298 L11.6676609,19.5234298 L11.6676609,19.7682627 C11.6676609,20.0783845 11.5706325,20.3150564 11.3765758,20.4782784 C11.1825191,20.6415004 10.8024913,20.7231113 10.2364925,20.7231113 L10.2364925,20.7231113 L8.32018229,20.7231113 C6.46047196,20.7231113 4.94844661,20.6945475 3.78410623,20.6374198 C2.61976585,20.5802921 1.85162463,20.5190839 1.47968256,20.4537951 L1.47968256,20.4537951 L0.0242570912,23.6121405 C0.0242570912,23.7427181 0.282999398,23.8569735 0.80048401,23.9549067 C1.31796862,24.0528399 2.12653833,24.1018064 3.22619313,24.1018064 L12.225574,24.1018064 Z M35.4881245,24.3466394 C35.9409235,24.3466394 36.3411655,24.3180756 36.6888505,24.2609479 C37.0365354,24.2038202 37.2912349,24.150773 37.4529488,24.1018064 L37.4529488,24.1018064 L38.4232325,21.3841604 C38.2453472,21.3841604 37.8370195,21.2984688 37.1982494,21.1270858 C36.5594793,20.9557027 35.8034666,20.527245 34.9302114,19.8417126 C34.5097551,19.5152687 34.1499416,19.2214691 33.8507708,18.9603139 C33.5516,18.6991587 33.1998722,18.4135203 32.7955873,18.1033985 C32.3589597,17.7606323 31.9546748,17.4545911 31.5827328,17.1852748 C31.2107907,16.9159585 30.7741631,16.6752061 30.2728498,16.4630175 C30.5154208,16.2345067 30.8388486,15.9162239 31.2431335,15.5081689 C31.6474183,15.1001139 32.0921317,14.6471729 32.5772735,14.1493459 C33.0624153,13.6515188 33.5516,13.1414501 34.0448275,12.6191398 C34.5380551,12.0968294 34.9868112,11.6153246 35.3910961,11.1746252 L35.3910961,11.1746252 L36.3856368,9.70562732 L30.4426495,9.70562732 C30.1192216,10.1952933 29.7270653,10.7624897 29.2661806,11.4072165 C28.8052958,12.0519434 28.3363254,12.680348 27.8592693,13.2924305 C27.3822131,13.9045129 26.9496283,14.4227427 26.5615149,14.8471199 C26.3836296,15.0429863 26.2178728,15.1776444 26.0642445,15.2510943 C25.9106163,15.3245442 25.6963453,15.3612691 25.4214316,15.3612691 L25.4214316,15.3612691 L24.6937189,15.3612691 L24.6937189,9.70562732 L19.7937864,9.70562732 L20.0363574,11.6642911 L20.0363574,24.1018064 L24.6937189,24.1018064 L24.6937189,18.7399642 L24.9362898,18.7399642 C25.971259,18.7399642 26.8323857,18.923589 27.51967,19.2908384 C28.2069542,19.6580879 28.8578529,20.1518344 29.4723658,20.7720779 L29.4723658,20.7720779 L30.3456211,21.6534767 L30.3456211,21.6534767 L31.2188764,22.5348754 C31.7848752,23.0898301 32.4398167,23.5305295 33.1837008,23.8569735 C33.9275849,24.1834174 34.6957261,24.3466394 35.4881245,24.3466394 Z M45.2637322,24.1018064 L45.2637322,9.70562732 L40.6063707,9.70562732 L40.6063707,24.1018064 L45.2637322,24.1018064 Z M54.1175705,24.1018064 L54.1175705,20.1599955 C54.5541982,20.1926399 55.2131825,20.2334454 56.0945235,20.282412 C56.9758644,20.3313786 57.9259338,20.3558619 58.9447317,20.3558619 L58.9447317,20.3558619 L60.618471,20.3558619 C61.8798397,20.3558619 62.8460805,20.1559149 63.5171934,19.7560211 C64.1883062,19.3561272 64.649191,18.8256558 64.8998476,18.1646067 C65.1505042,17.5035577 65.2758325,16.7813004 65.2758325,15.9978349 L65.2758325,15.9978349 L65.2758325,14.0636543 C65.2758325,13.4760552 65.2232755,12.9170199 65.1181614,12.3865484 C65.0130473,11.856077 64.7947335,11.3908943 64.4632199,10.9910005 C64.1317063,10.5911066 63.6384788,10.2728237 62.9835374,10.0361518 C62.3285959,9.79947996 61.4593835,9.68114402 60.3759001,9.68114402 L60.3759001,9.68114402 L49.1448668,9.68114402 L49.3874377,11.6642911 L49.3874377,24.1018064 L54.1175705,24.1018064 Z M59.1387884,17.0261334 L54.1175705,17.0261334 L54.1175705,13.0598391 L59.1630455,13.0598391 C59.7128729,13.0598391 60.084815,13.170014 60.2788717,13.3903636 C60.4729284,13.6107133 60.5699568,13.95756 60.5699568,14.4309038 L60.5699568,14.4309038 L60.5699568,15.679552 C60.5699568,16.1528958 60.4648427,16.4956619 60.2546146,16.7078505 C60.0443865,16.9200391 59.6724444,17.0261334 59.1387884,17.0261334 L59.1387884,17.0261334 Z" id="SKIP" fill="#FFFFFF" fill-rule="nonzero"></path>
                <rect id="Rectangle-2" fill="#28F4AE" x="72.1772421" y="0" width="21.6627579" height="33.3568131"></rect>
            </g>
        </g>
    </g>
</svg>