<?xml version="1.0" encoding="UTF-8"?>
<svg width="100px" height="38px" viewBox="0 0 100 38" version="1.1" xmlns="http://www.w3.org/2000/svg" xmlns:xlink="http://www.w3.org/1999/xlink">
    <title>TestNet</title>
    <g id="⚡-Active---VANAHEIMEX" stroke="none" stroke-width="1" fill="none" fill-rule="evenodd">
        <g id="Desktop:-Views-(don't-use-to-code)" transform="translate(-348.000000, -39.000000)">
            <g id="Header" transform="translate(0.000000, -11.000000)">
                <g id="New" transform="translate(348.855000, 50.476000)">
                    <g id="Logo" transform="translate(0.000000, 0.000000)">
                        <g id="SKIP" transform="translate(0.000000, 0.000000)">
                            <g id="TestNet" transform="translate(0.000000, 0.000000)">
                                <path d="M14.08237,21.5323935 L3.12089194,33.4281153 C2.74664205,33.8342624 2.77249986,34.4668992 3.17864696,34.841149 C3.46676212,35.1066368 3.88337337,35.1794214 4.24443886,35.0273498 L22.3568717,27.3988516 C22.8658547,27.1844809 23.1046851,26.5980869 22.8903143,26.0891039 C22.8410316,25.9720914 22.7699164,25.8655345 22.680769,25.7751275 L18.4247024,21.4589246 C17.261377,20.2791619 15.3619288,20.2658368 14.1821662,21.4291623 C14.148082,21.4627716 14.114807,21.4971918 14.08237,21.5323935 Z" id="Path" fill="#F3BA2F" fill-rule="nonzero"></path>
                                <path d="M25.7359348,1.55349544 L10.0266273,8.14024523 C9.51730152,8.35380023 9.27753196,8.93981085 9.49108696,9.44913659 C9.54041108,9.56677394 9.61178651,9.67388814 9.70136407,9.76470265 L13.7783314,13.8979681 C14.9418434,15.0775468 16.8412937,15.0905715 18.0208724,13.9270595 C18.0966275,13.8523362 18.1683535,13.7736354 18.2357461,13.6912907 L26.8964765,3.1090604 C27.2462656,2.6816659 27.1833539,2.05163414 26.7559594,1.70184508 C26.4695896,1.46747371 26.0772015,1.41040584 25.7359348,1.55349544 Z" id="Path" fill="#F3BA2F" fill-rule="nonzero"></path>
                                <text id="SKIP" font-family="Exo2-Bold, Exo 2" font-size="22.5" font-weight="bold" letter-spacing="4.13522693" fill="#FFFFFF">
                                    <tspan x="37.2889086" y="26.524">SKI</tspan>
                                    <tspan x="83.5570894" y="26.524" letter-spacing="0.635227">P</tspan>
                                </text>
                            </g>
                        </g>
                    </g>
                </g>
            </g>
        </g>
    </g>
</svg>